<svg width="58" height="38" viewBox="0 0 58 38" fill="none" xmlns="http://www.w3.org/2000/svg">
    <g clip-path="url(#clip0_1542_9751)">
        <path d="M0 9.18209L7.81206 7.3639C7.81206 7.3639 9.40172 16.6366 20.3477 12.8639C31.2937 9.09118 48.6891 0.636631 53.8215 6.09118C57.8637 10.4094 42.1942 12.4548 38.924 14.8184L24.4354 35.273L17.6226 37.0912L24.4354 20.9094C24.4354 20.9094 16.3054 25.7275 12.354 19.773L11.7635 25.1821L3.63352 26.8639L4.17854 17.1366L0 9.18209Z" fill="#9ACD48"/>
        <path d="M22.8458 11.9548L14.9883 3.36386L18.9397 2.27295L32.7925 8.18204" fill="#9ACD48"/>
        <path d="M20.3027 37.9994C20.0302 37.9994 19.8031 37.9085 19.6214 37.6813C19.3943 37.4085 19.3489 37.0449 19.4851 36.7267L25.435 22.454C22.3919 23.454 16.6237 24.7267 13.0356 21.8176L12.6723 25.2267C12.6269 25.5904 12.3998 25.8631 12.0364 25.9994L6.58614 27.7267C6.31363 27.8176 5.99569 27.7722 5.7686 27.5904C5.54151 27.4085 5.40525 27.1358 5.40525 26.8176L5.90486 17.3631L1.81715 9.59035C1.72631 9.36308 1.72631 9.09035 1.81715 8.81762C1.90799 8.59035 2.13508 8.36308 2.36218 8.27217L7.53994 6.45399C7.99413 6.31762 8.44832 6.49944 8.67541 6.95399C8.85709 7.31762 12.7631 15.454 22.7553 11.9994C24.8446 11.2722 27.1609 10.3631 29.659 9.45399C40.4233 5.31762 52.641 0.635805 57.1828 5.49944C58.0912 6.45399 58.0912 7.40853 57.955 7.99944C57.3191 10.5904 52.7318 12.4994 46.2823 14.9085C43.8751 15.8176 41.6042 16.6358 40.6504 17.2722L27.8422 35.7722C27.706 35.954 27.5243 36.0904 27.3426 36.1358L20.5298 37.954C20.4389 37.9994 20.3935 37.9994 20.3027 37.9994ZM27.1155 19.9994C27.3426 19.9994 27.5697 20.0904 27.7514 20.2722C28.0239 20.5449 28.1147 20.9085 27.933 21.2722L21.8469 35.7267L26.5251 34.454L39.1969 16.0904C39.2424 15.9994 39.3332 15.9085 39.424 15.8631C40.5141 15.0449 42.8759 14.1813 45.601 13.1813C49.6433 11.6813 55.684 9.40853 56.1382 7.5449C56.1836 7.40853 56.2291 7.18126 55.8203 6.68126C52.0959 2.68126 39.9691 7.36308 30.2494 11.0904C27.7514 12.0449 25.435 12.954 23.3003 13.6813C13.6261 17.0449 8.76625 10.6813 7.40368 8.45399L3.95184 9.68126L7.6762 16.7267C7.76703 16.8631 7.76703 17.0449 7.76703 17.1813L7.31284 25.5904L10.9918 24.454L11.5368 19.6358C11.5822 19.2722 11.8547 18.954 12.2181 18.8631C12.5814 18.7722 12.9902 18.9085 13.1719 19.2267C16.6237 24.4994 26.6613 20.0904 26.7522 20.0449C26.843 19.9994 26.9792 19.9994 27.1155 19.9994Z" fill="#3D3D3D"/>
        <path d="M26.8874 11.4995C26.6603 11.4995 26.3877 11.4086 26.2061 11.1814L18.3486 2.54499C18.1215 2.31772 18.0761 1.99954 18.1669 1.68136C18.2577 1.36318 18.4848 1.1359 18.8028 1.04499L22.7088 0.0449937C22.8905 -0.000460814 23.1176 -0.000460814 23.2993 0.0904483L37.152 5.99954C37.6062 6.18136 37.8333 6.72681 37.6516 7.18136C37.47 7.6359 36.9249 7.86317 36.4707 7.68136L22.8905 1.86318L20.7104 2.45408L27.5232 9.99954C27.8411 10.3632 27.8411 10.9541 27.4778 11.2723C27.2961 11.4541 27.069 11.4995 26.8874 11.4995Z" fill="#3D3D3D"/>
        <path d="M31.8388 15.4537C31.1575 15.6809 30.4308 15.2718 30.2038 14.59L29.9312 13.6809C29.7041 12.9991 30.1129 12.2718 30.7942 12.0446C31.4755 11.8173 32.2022 12.2264 32.4293 12.9082L32.7018 13.8173C32.9289 14.4991 32.5201 15.2264 31.8388 15.4537Z" fill="#3D3D3D"/>
        <path d="M36.6992 13.6822C36.0179 13.9094 35.2912 13.5004 35.0641 12.8185L34.7916 11.9094C34.5645 11.2276 34.9733 10.5004 35.6546 10.2731C36.3358 10.0458 37.0625 10.4549 37.2896 11.1367L37.5621 12.0458C37.7438 12.7276 37.3805 13.4549 36.6992 13.6822Z" fill="#3D3D3D"/>
        <path d="M41.5586 11.9083C40.8773 12.1355 40.1506 11.7264 39.9235 11.0446L39.651 10.1355C39.4239 9.4537 39.8326 8.72643 40.5139 8.49916C41.1952 8.27189 41.9219 8.68098 42.149 9.3628L42.4215 10.2719C42.6032 10.9537 42.2398 11.681 41.5586 11.9083Z" fill="#3D3D3D"/>
        <path d="M27.0254 17.2281C26.3441 17.4553 25.6174 17.0463 25.3903 16.3644L25.1178 15.4553C24.8907 14.7735 25.2994 14.0463 25.9807 13.819C26.662 13.5917 27.3887 14.0008 27.6158 14.6826L27.8883 15.5917C28.07 16.2735 27.7066 17.0008 27.0254 17.2281Z" fill="#3D3D3D"/>
    </g>
    <defs>
        <clipPath id="clip0_1542_9751">
            <rect width="58" height="38" fill="white"/>
        </clipPath>
    </defs>
</svg>
