<svg width="64" height="46" viewBox="0 0 64 46" fill="none" xmlns="http://www.w3.org/2000/svg">
    <path d="M57.4179 4.11928L35.4339 5.184C32.8104 5.31106 30.7869 7.53528 30.9143 10.1519L31.3518 19.1399C31.4792 21.7565 33.7093 23.7747 36.3328 23.6477L58.3168 22.583C60.9403 22.4559 62.9638 20.2317 62.8364 17.615L62.3988 8.6271C62.2714 6.01044 60.0414 3.99222 57.4179 4.11928Z" fill="#8AC6EE"/>
    <path d="M54.7335 12.8905C54.6333 12.8905 54.5331 12.8498 54.4626 12.7795C54.3922 12.7092 54.3513 12.6093 54.3513 12.5094V8.66504H50.4524C50.3523 8.66504 50.2521 8.62434 50.1816 8.55404C50.1111 8.48374 50.0703 8.38384 50.0703 8.28394C50.0703 8.18404 50.1111 8.08413 50.1816 8.01383C50.2521 7.94353 50.3523 7.90283 50.4524 7.90283H54.7335C54.8336 7.90283 54.9338 7.94353 55.0043 8.01383C55.0748 8.08413 55.1156 8.18404 55.1156 8.28394V12.5131C55.1156 12.613 55.0748 12.7129 55.0043 12.7832C54.9338 12.8535 54.8336 12.8942 54.7335 12.8942V12.8905Z" fill="#3D3E3E"/>
    <path d="M38.8147 20.5716C38.7146 20.5716 38.6144 20.5309 38.5439 20.4606C38.5068 20.4236 38.4808 20.3829 38.4623 20.3348C38.4437 20.2867 38.4326 20.2386 38.4326 20.1868C38.4326 20.135 38.4437 20.0869 38.4623 20.0388C38.4808 19.9907 38.5105 19.95 38.5439 19.913L44.0788 14.3518C44.153 14.2815 44.2495 14.2408 44.3534 14.2371C44.4053 14.2371 44.4535 14.2482 44.5017 14.2667C44.55 14.2852 44.5908 14.3148 44.6279 14.3518L46.3826 16.1241L54.3066 8.26154C54.34 8.22454 54.3845 8.19124 54.4327 8.16904C54.4809 8.14684 54.5329 8.13574 54.5848 8.13574C54.6368 8.13574 54.6887 8.14314 54.7369 8.16164C54.7851 8.18014 54.8297 8.20974 54.8668 8.24674C54.9039 8.28374 54.9335 8.32814 54.9521 8.37625C54.9706 8.42435 54.9818 8.47615 54.9781 8.52795C54.9781 8.57975 54.9632 8.63155 54.9447 8.67965C54.9224 8.72775 54.8927 8.76845 54.8519 8.80545L46.6534 16.9308C46.62 16.9678 46.5755 16.9974 46.5273 17.0159C46.479 17.0344 46.4308 17.0455 46.3789 17.0418C46.3269 17.0418 46.2787 17.0307 46.2305 17.0122C46.1823 16.9937 46.1415 16.9641 46.1081 16.9271L44.3534 15.1584L39.093 20.4532C39.0559 20.4902 39.015 20.5161 38.9668 20.5383C38.9186 20.5568 38.8704 20.5679 38.8184 20.5679L38.8147 20.5716Z" fill="#3D3E3E"/>
    <path d="M57.4231 23.1297H36.3295C33.7401 23.1297 31.6367 21.0318 31.6367 18.4491V9.32851C31.6367 6.74588 33.7401 4.64795 36.3295 4.64795H57.4231C60.0125 4.64795 62.1159 6.74588 62.1159 9.32851V18.4528C62.1159 21.0355 60.0125 23.1334 57.4231 23.1334V23.1297ZM36.3258 6.12797C34.5563 6.12797 33.1169 7.56359 33.1169 9.32851V18.4528C33.1169 20.2177 34.5563 21.6534 36.3258 21.6534H57.4194C59.1889 21.6534 60.6283 20.2177 60.6283 18.4528V9.32851C60.6283 7.56359 59.1889 6.12797 57.4194 6.12797H36.3258Z" fill="#3D3E3E"/>
    <path d="M46.7732 28.3806C46.3651 28.3806 46.0312 28.0476 46.0312 27.6406V22.3865C46.0312 21.9795 46.3651 21.6465 46.7732 21.6465C47.1813 21.6465 47.5151 21.9795 47.5151 22.3865V27.6406C47.5151 28.0476 47.1813 28.3806 46.7732 28.3806Z" fill="#3D3E3E"/>
    <path d="M13.503 29.1633C12.928 21.0972 18.9229 15.3436 26.9767 14.7368C28.6053 22.8621 22.9591 30.5619 13.503 29.1633Z" fill="#9ACD48"/>
    <path d="M11.8906 6.71677C13.3856 2.13242 18.0043 0.241692 22.6748 1.70321C21.688 6.56507 16.8505 9.59171 11.8906 6.71677Z" fill="#9ACD48"/>
    <path d="M12.0455 16.0379C6.74059 17.9545 1.81777 15.1203 0 9.94389C5.16025 7.37235 11.3147 9.63678 12.0455 16.0379Z" fill="#9ACD48"/>
    <path d="M12.0462 34.7511C11.8199 34.7511 11.601 34.6623 11.4378 34.4995C11.2746 34.3367 11.1855 34.1221 11.1855 33.8927V7.25601C11.1855 5.60579 12.0833 3.85567 13.6562 2.46075C14.6282 1.57644 15.7782 0.903032 17.0247 0.488626C18.2711 0.0705208 19.5955 -0.0811811 20.9051 0.0409204C21.0164 0.0520206 21.1276 0.089021 21.2241 0.144522C21.3243 0.200022 21.4096 0.274023 21.4801 0.362825C21.5506 0.451626 21.6025 0.551527 21.6322 0.662528C21.6618 0.76983 21.673 0.884531 21.6581 0.995533C21.3614 3.57077 19.5881 8.49553 14.9769 8.80633C14.7506 8.82113 14.5243 8.74713 14.35 8.59543C14.1793 8.44373 14.0717 8.23283 14.0569 8.00712C14.042 7.77772 14.1162 7.55572 14.2683 7.38181C14.4204 7.21161 14.6319 7.10431 14.8582 7.08951C18.1524 6.85271 19.3692 3.42276 19.7699 1.70594C17.9261 1.79474 16.1677 2.51255 14.7877 3.74097C13.582 4.81028 12.8957 6.0905 12.8957 7.25601V33.8927C12.8957 34.1221 12.8067 34.3367 12.6435 34.4995C12.4802 34.6623 12.2614 34.7511 12.0351 34.7511H12.0462Z" fill="#3D3E3E"/>
    <path d="M8.9296 17.6218C6.31795 17.6218 4.31098 16.8115 2.95321 15.2537C0.679145 12.6267 1.17996 8.81566 1.20593 8.67136C1.2319 8.49746 1.3098 8.33096 1.43222 8.20515C1.55464 8.07565 1.71416 7.98685 1.88852 7.95355C4.40372 7.44664 7.08586 8.22735 9.43784 10.1477C11.4522 11.7905 12.9139 14.0771 12.9139 15.5793C12.9139 15.8088 12.8248 16.0234 12.6616 16.1862C12.5021 16.3453 12.2832 16.4378 12.0532 16.4378C11.8232 16.4378 11.608 16.349 11.4448 16.1862C11.2853 16.0271 11.1925 15.8088 11.1925 15.5793C11.1925 14.8319 10.202 13.0041 8.35089 11.4797C7.31587 10.6213 5.29406 9.33367 2.8716 9.54457C2.8716 10.5769 2.98289 12.6637 4.27388 14.1437C5.28293 15.3055 6.85586 15.9013 8.94444 15.9124C9.17074 15.9124 9.38961 16.0012 9.55284 16.164C9.71236 16.3231 9.8051 16.5414 9.8051 16.7708C9.8051 17.0002 9.71607 17.2148 9.55284 17.3776C9.39332 17.5367 9.17074 17.6292 8.94444 17.6292H8.93702L8.9296 17.6218Z" fill="#3D3E3E"/>
    <path d="M12.0463 28.5033C11.8163 28.5033 11.6011 28.4145 11.4379 28.2517C11.2784 28.0926 11.1856 27.8743 11.1856 27.6449C11.1485 26.0465 11.4527 24.4592 12.0834 22.9903C12.7141 21.5214 13.6526 20.2041 14.836 19.1237C17.8483 16.3968 22.3631 15.0981 27.2674 15.5569C27.464 15.5754 27.6495 15.6642 27.7904 15.8011C27.9314 15.9417 28.0204 16.1267 28.039 16.3228C28.039 16.5078 28.4693 20.811 25.431 24.2261C23.1941 26.7532 19.7329 28.0889 15.1328 28.1962C15.0215 28.1962 14.9065 28.1777 14.8026 28.137C14.6988 28.0963 14.6023 28.0334 14.5207 27.9557C14.4391 27.878 14.3723 27.7855 14.3278 27.6819C14.2833 27.5783 14.2573 27.4673 14.2536 27.3563C14.2536 27.2453 14.2721 27.1306 14.313 27.027C14.3538 26.9234 14.4131 26.8272 14.4947 26.7458C14.5726 26.6644 14.6654 26.5978 14.7693 26.5534C14.8731 26.509 14.9844 26.4831 15.0957 26.4794C19.1913 26.3832 22.237 25.2436 24.1289 23.0939C25.5201 21.4437 26.2954 19.3679 26.3288 17.2108C22.2592 16.9925 18.4308 18.158 15.9786 20.3891C14.9733 21.3068 14.1794 22.4279 13.6452 23.6822C13.111 24.9328 12.855 26.2833 12.8884 27.6412C12.8884 27.8669 12.7994 28.0815 12.6399 28.2443C12.4803 28.4034 12.2652 28.4959 12.0389 28.4996L12.0463 28.5033Z" fill="#3D3E3E"/>
    <path d="M19.0757 35.4453H5.16046C4.93046 35.4453 4.7153 35.3565 4.55207 35.1937C4.39255 35.0346 4.2998 34.8163 4.2998 34.5869C4.2998 34.3575 4.38884 34.1429 4.55207 33.9801C4.71159 33.821 4.93046 33.7285 5.16046 33.7285H19.0757C19.302 33.7285 19.5209 33.8173 19.6841 33.9801C19.8473 34.1429 19.9364 34.3575 19.9364 34.5869C19.9364 34.8163 19.8473 35.0309 19.6841 35.1937C19.5209 35.3565 19.302 35.4453 19.0757 35.4453Z" fill="#3D3E3E"/>
    <path d="M56.9003 35.3233H28.9734C28.5653 35.3233 28.2314 34.9903 28.2314 34.5833C28.2314 34.1763 28.5653 33.8433 28.9734 33.8433H56.9003C57.3084 33.8433 57.6423 34.1763 57.6423 34.5833C57.6423 34.9903 57.3084 35.3233 56.9003 35.3233Z" fill="#3D3E3E"/>
    <path d="M14.9432 39.4976H9.13746C8.72938 39.4976 8.39551 39.1646 8.39551 38.7576C8.39551 38.3506 8.72938 38.0176 9.13746 38.0176H14.9432C15.3513 38.0176 15.6851 38.3506 15.6851 38.7576C15.6851 39.1646 15.3513 39.4976 14.9432 39.4976Z" fill="#3D3E3E"/>
    <path d="M56.9001 39.4976H53.157C52.7489 39.4976 52.415 39.1646 52.415 38.7576C52.415 38.3506 52.7489 38.0176 53.157 38.0176H56.9001C57.3082 38.0176 57.6421 38.3506 57.6421 38.7576C57.6421 39.1646 57.3082 39.4976 56.9001 39.4976Z" fill="#3D3E3E"/>
    <path d="M45.9748 39.4976H20.0994C19.6913 39.4976 19.3574 39.1646 19.3574 38.7576C19.3574 38.3506 19.6913 38.0176 20.0994 38.0176H45.9748C46.3829 38.0176 46.7167 38.3506 46.7167 38.7576C46.7167 39.1646 46.3829 39.4976 45.9748 39.4976Z" fill="#3D3E3E"/>
    <path d="M5.57559 45.2504H57.9015C60.3651 45.2504 62.3657 43.2519 62.3657 40.7972V32.1613C62.3657 29.7025 60.3611 27.708 57.9015 27.708H24.9367C24.3912 27.708 23.9448 28.1523 23.9448 28.698C23.9448 29.2437 24.3912 29.688 24.9367 29.688H57.9015C59.2701 29.688 60.3818 30.7977 60.3818 32.1613V40.7972C60.3818 42.1607 59.2701 43.2704 57.9015 43.2704H5.57559C4.20689 43.2704 3.09522 42.1607 3.09522 40.7972V32.1613C3.09522 30.7977 4.20689 29.688 5.57559 29.688H6.47706C7.02258 29.688 7.469 29.2437 7.469 28.698C7.469 28.1523 7.02258 27.708 6.47706 27.708H5.57559C3.11199 27.708 1.11133 29.7065 1.11133 32.1613V40.7972C1.11133 43.2559 3.11598 45.2504 5.57559 45.2504Z" fill="#3D3E3E" stroke="#3D3D3D" stroke-width="0.5"/>
</svg>
